<?xml version="1.0" encoding="UTF-8"?>
<!DOCTYPE svg PUBLIC "-//W3C//DTD SVG 1.1//EN" "http://www.w3.org/Graphics/SVG/1.1/DTD/svg11.dtd">
<svg version="1.1" xmlns="http://www.w3.org/2000/svg" xmlns:xlink="http://www.w3.org/1999/xlink" width="1023.9999" height="1023.9999" >
<path d=" 
M264.2601,71.3398
C269.7999,70.5300 275.4000,70.4098 280.9899,70.4999
C436.6500,70.4999 592.3100,70.5098 747.9700,70.4900
C780.3700,70.8698 811.8400,88.1597 829.9199,114.9900
C837.2701,125.8098 842.5400,138.0898 845.0700,150.9398
C847.0199,160.4900 847.0199,170.2800 847.0001,179.9799
C847.0001,325.9800 847.0001,471.9699 847.0001,617.9698
C846.8901,631.6200 847.6699,645.4698 844.6201,658.8998
C839.0999,684.3197 823.0901,707.1599 801.3101,721.3099
C783.9000,732.7899 762.8601,738.6797 742.0201,737.7500
C586.0100,737.7500 429.9999,737.7398 273.9900,737.7500
C239.6900,737.0099 206.8999,716.6599 190.3499,686.7099
C184.3101,676.0298 180.3399,664.2000 178.5801,652.0598
C177.1401,642.1099 177.5500,632.0398 177.5001,622.0298
C177.5001,477.0198 177.5001,332.0198 177.5001,187.0098
C177.5699,174.3500 176.9000,161.5099 179.7701,149.0698
C184.5201,126.5100 197.6601,105.9398 215.8200,91.7898
C229.7699,80.8398 246.6601,73.6299 264.2601,71.3398
Z" 
style="fill-rule: evenodd; fill: #a5cd39; "/>
<path d=" 
M272.2399,154.0199
C301.6599,153.9799 331.0801,153.9998 360.4901,153.9998
C360.5700,223.1898 360.3699,292.3798 360.5899,361.5698
C363.3001,358.8900 365.1100,355.4898 367.6399,352.6600
C385.4100,331.5600 411.6801,318.6899 438.7300,314.6598
C462.5300,311.1797 487.5301,312.6098 509.9100,321.9398
C536.6401,333.1500 558.2999,354.5099 572.6299,379.4298
C583.1700,397.8598 589.6100,418.3398 594.0901,438.9900
C602.3500,477.7398 599.3201,518.5199 586.8300,556.0299
C580.9099,574.9098 571.6500,592.7998 559.0500,608.0998
C548.5099,620.5997 536.5199,632.2700 522.0400,640.1299
C503.5000,650.4398 482.0301,654.4599 460.9701,654.2700
C440.7599,654.0797 420.0500,652.6800 401.1001,645.0698
C393.5701,641.8500 386.3500,637.9098 379.5500,633.3698
C373.3699,629.0498 367.2499,624.2598 363.1700,617.8000
C360.3300,613.3898 357.2101,609.0500 355.6199,603.9899
C356.5899,614.3800 354.3401,625.4099 347.5800,633.5898
C339.5299,643.4300 327.2000,648.4898 315.0799,651.1399
C301.1000,654.1798 286.6601,654.4899 272.4301,653.4400
C272.0001,601.9798 272.3700,550.4998 272.2501,499.0297
C272.2501,384.0199 272.2601,269.0198 272.2399,154.0199
Z
Z
M421.4299,380.5200
C404.3500,383.0400 389.6101,393.7198 378.7101,406.6798
C367.2300,420.3598 361.6699,437.8000 357.9701,454.9898
C353.9401,473.7098 353.7400,493.2598 357.8400,511.9999
C361.8799,530.8299 368.4801,549.8300 381.7100,564.2799
C392.2200,576.9499 407.7099,585.1800 424.0400,587.0299
C440.1400,588.9300 457.5699,586.7300 470.9999,577.0599
C481.7599,569.5200 488.7601,557.9700 494.3900,546.3697
C503.9101,526.0000 507.2199,503.2500 506.8701,480.9197
C506.5999,464.0499 504.1301,447.1798 499.1301,431.0597
C493.9200,416.6399 485.8600,402.9097 474.1801,392.7898
C459.6199,380.9200 439.6399,377.5000 421.4299,380.5200
Z
Z
M177.4899,786.2698
C185.5701,786.2199 193.6599,786.2598 201.7500,786.2499
C201.7500,804.9498 201.7400,823.6500 201.7500,842.3399
C206.4200,835.1300 214.7800,831.5099 222.9100,829.8799
C233.6000,827.9399 245.6700,830.6198 253.2200,838.8000
C260.3900,845.7299 264.2601,855.3498 266.0199,865.0199
C268.4500,878.7498 266.4300,893.3800 259.5501,905.5899
C254.5801,914.1698 246.0699,921.0399 236.0900,922.5000
C227.1501,923.6699 217.4700,923.2299 209.5200,918.5298
C205.7100,916.7298 202.6001,913.7098 200.6300,909.9998
C200.3499,913.4597 199.1200,917.0399 196.1300,919.0998
C190.7501,922.8699 183.8599,922.8798 177.5500,922.7398
C177.4199,877.2500 177.5500,831.7599 177.4899,786.2698
Z
Z
M216.4300,848.5798
C208.1500,850.9799 203.1100,859.0099 201.5399,867.1000
C199.0701,877.2299 200.8500,888.5699 206.8999,897.1398
C212.9199,905.4598 226.4700,907.3298 233.9101,899.9399
C241.7301,891.4300 243.1199,878.8300 241.1501,867.8599
C240.3601,861.3799 237.1601,855.1298 231.9900,851.0899
C227.6600,847.6600 221.6200,847.0500 216.4300,848.5798
Z
Z
M273.2499,786.2499
C281.3301,786.2400 289.4100,786.2598 297.4901,786.2499
C297.5100,792.9899 297.5000,799.7400 297.5000,806.4998
C289.4199,806.5100 281.3400,806.4899 273.2700,806.5100
C273.2301,799.7499 273.2601,792.9998 273.2499,786.2499
Z
Z
M335.8199,829.8198
C347.9800,827.5499 362.7400,831.9197 368.3001,843.7997
C369.1599,840.0399 371.5999,836.7900 375.0301,835.0098
C380.0900,832.1698 386.0700,831.8200 391.7500,832.0000
C391.7500,858.6598 391.7401,885.3199 391.7599,911.9798
C391.9901,919.0800 390.8100,926.2602 388.1200,932.8499
C382.5901,944.8600 369.6001,951.8998 356.8601,953.3398
C344.2700,954.7897 330.3901,953.8897 319.8101,946.2101
C312.8000,941.6699 308.0999,933.8199 307.5100,925.4801
C315.5400,925.5300 323.5799,925.4500 331.6201,925.5300
C332.6800,928.9602 334.5599,932.3101 337.7401,934.2000
C343.2501,937.3601 350.0101,937.7396 356.1100,936.3898
C363.2100,934.8100 367.3301,927.5601 368.3100,920.8298
C368.7701,915.2300 368.3200,909.5998 368.5601,904.0000
C364.8600,910.9100 357.8400,915.7799 350.1400,917.0898
C340.5200,918.7299 329.9899,917.7599 321.6801,912.2698
C311.9899,905.8799 306.5499,894.4498 305.4501,883.1299
C304.5399,872.9399 304.4699,862.2298 308.6300,852.6798
C313.2799,841.3200 323.2899,831.4999 335.8199,829.8198
Z
Z
M343.4100,848.5098
C338.6100,849.6998 334.5301,853.1498 332.3999,857.5900
C328.6800,864.0700 329.0800,871.8599 329.4000,879.0599
C330.2101,887.4899 334.9701,897.1900 344.0599,898.8797
C352.2399,900.8799 361.3601,896.7498 365.2801,889.3298
C369.8600,878.8399 369.6999,865.9800 364.0700,855.9298
C360.0901,848.9098 350.8500,846.4499 343.4100,848.5098
Z
Z
M273.2499,832.0099
C281.3301,832.0000 289.4199,831.9798 297.5100,832.0099
C297.5000,862.3397 297.5000,892.6600 297.5100,922.9799
C289.4199,923.0100 281.3301,922.9997 273.2499,922.9898
C273.2499,892.6600 273.2499,862.3397 273.2499,832.0099
Z" 
style="fill-rule: evenodd; fill: #ec1c24; "/>
<path d=" 
M474.2501,154.0100
C492.0800,153.9899 509.9199,153.9899 527.7501,154.0100
C527.7501,207.5400 527.7300,261.0697 527.7600,314.5997
C511.8701,304.4299 493.2700,297.8799 474.2501,298.2197
C474.2501,250.1498 474.2600,202.0799 474.2501,154.0100
Z
Z
M548.1300,330.0299
C567.1199,319.0000 588.9900,312.7399 610.9900,312.7297
C643.5799,312.1897 675.7699,325.3799 699.6600,347.3399
C714.4900,360.7798 726.2300,377.5297 734.2101,395.8699
C749.1600,431.7500 755.2701,471.4299 750.5501,510.0900
C748.1900,529.6598 743.2299,548.8699 736.2400,567.2798
C729.8300,583.8698 720.4099,599.2798 708.6101,612.5800
C698.4901,623.9299 686.9500,634.3098 673.3100,641.2499
C655.1799,650.8397 634.4300,654.4599 614.0599,654.2597
C589.2999,654.1398 563.4201,651.6799 541.6801,638.7698
C554.0100,628.5600 565.1201,616.8600 574.3701,603.7798
C591.7399,609.9698 611.1700,610.8797 628.8900,605.5798
C643.1000,601.3899 655.5300,592.2899 664.7400,580.7798
C675.1400,567.8099 681.8199,552.2499 686.2000,536.3099
C692.2599,513.8498 693.9099,490.3398 692.2301,467.1799
C690.5500,445.8898 686.0299,424.5797 676.7101,405.2599
C669.3999,390.2800 658.5701,376.5699 644.0000,368.1198
C623.8199,356.3498 598.5099,355.5598 576.6199,362.7000
C568.4700,350.7199 558.8700,339.7499 548.1300,330.0299
Z
Z
M403.2499,786.2499
C408.4200,786.2499 413.5799,786.2499 418.7500,786.2499
C418.7299,805.2698 418.7900,824.2900 418.7200,843.3099
C422.2899,837.6599 427.6001,833.0800 434.0001,830.9699
C446.1800,826.9900 460.6500,830.0200 469.6600,839.3199
C478.0001,847.9199 481.3101,860.1500 481.7100,871.8599
C481.8699,884.2997 479.6501,897.2399 472.9099,907.8999
C464.2401,922.3900 444.2000,927.9499 429.0301,921.0399
C424.1401,918.6900 420.5100,914.4000 417.7899,909.8198
C417.9501,913.0598 417.5399,916.7100 414.9300,918.9998
C411.8301,922.0399 407.1699,921.1300 403.2499,921.2400
C403.2499,876.2499 403.2499,831.2499 403.2499,786.2499
Z
Z
M436.4501,843.5699
C431.1300,844.5399 426.5501,848.0599 423.7500,852.6197
C419.5400,859.3200 418.4101,867.3900 417.9101,875.1498
C417.3401,883.4199 417.9501,892.2798 422.3801,899.5300
C426.5600,906.6197 434.8199,910.9800 443.0401,910.5398
C450.4000,910.5900 457.2000,906.0999 460.8300,899.8398
C465.3499,892.0599 466.3701,882.7999 466.2400,873.9700
C465.9199,865.7898 464.9100,856.9298 459.4799,850.4099
C454.0201,843.7997 444.5399,841.9499 436.4501,843.5699
Z
Z
M654.4899,786.2598
C659.3199,786.2298 664.1600,786.2499 668.9900,786.2499
C669.0200,814.7599 668.9801,843.2700 669.0101,871.7800
C679.5601,861.4100 690.1801,851.1199 700.7800,840.8098
C704.1900,837.1698 708.8899,834.2498 714.0399,834.4500
C717.3901,834.2799 720.1899,836.3798 722.7099,838.3198
C712.9001,848.3100 702.6800,857.8800 692.6601,867.6598
C704.6101,886.5000 716.8201,905.1797 728.8200,923.9899
C722.3100,923.9998 715.7999,923.9899 709.3001,923.9998
C700.0600,908.9498 690.7901,893.9200 681.5401,878.8799
C677.2901,882.5499 673.1300,886.3200 668.9801,890.1099
C669.0300,901.3997 668.9900,912.6998 668.9999,923.9998
C664.1600,923.9998 659.3301,923.9998 654.5001,923.9998
C654.4899,878.0899 654.5100,832.1800 654.4899,786.2598
Z
Z
M817.5101,786.2499
C822.4999,786.2499 827.4900,786.2499 832.4901,786.2400
C832.5099,801.8597 832.4901,817.4798 832.5099,833.0899
C836.6800,833.5698 841.2199,834.5098 844.1799,837.7498
C846.3101,839.8397 846.8600,842.8898 847.1401,845.7398
C842.2600,845.7500 837.3801,845.7398 832.5000,845.7500
C832.4901,864.8498 832.5099,883.9599 832.4901,903.0699
C832.4501,905.4400 833.0499,908.2998 835.4001,909.4598
C838.9800,911.2700 843.1299,910.2600 846.9799,910.4800
C847.0100,914.5100 847.0100,918.5400 846.9799,922.5799
C839.7300,923.2699 831.9300,925.4398 825.0900,921.8098
C819.5301,919.1699 817.7100,912.6099 817.5300,906.9398
C817.4599,886.5499 817.5200,866.1498 817.4999,845.7500
C813.4101,845.7398 809.3299,845.7500 805.2500,845.7500
C805.2500,841.5799 805.2500,837.4099 805.2500,833.2498
C809.3299,833.2498 813.4101,833.2398 817.4900,833.2498
C817.5101,817.5798 817.4900,801.9099 817.5101,786.2499
Z
Z
M499.3101,837.3399
C507.4801,830.4100 518.7501,829.1500 529.0600,829.3099
C537.9401,829.7399 547.3800,831.7500 554.0800,837.9700
C558.0400,841.8898 560.3700,847.4100 560.2601,852.9999
C560.2300,869.6900 560.2700,886.3798 560.2399,903.0699
C560.2901,905.5899 560.1600,908.9099 562.8699,910.1798
C565.2499,910.8899 567.7999,910.2699 570.2499,910.2197
C570.2499,913.9000 570.2499,917.5898 570.2499,921.2698
C564.2700,923.4899 557.1499,923.9899 551.5200,920.5999
C547.6399,918.2999 546.5999,913.5799 546.1299,909.4399
C540.6199,915.6300 533.5600,920.7099 525.3900,922.6100
C515.0200,925.1396 503.0101,924.4397 494.4801,917.4197
C481.5000,906.6699 483.1200,882.9998 497.8800,874.5500
C506.9299,869.1599 517.7900,869.5199 527.8799,867.9498
C532.4601,867.1399 537.3099,867.3698 541.6900,865.6600
C545.9400,863.1598 546.2201,857.4398 545.4499,853.1099
C544.4201,847.0998 538.5600,843.4298 532.9301,842.4998
C525.9900,841.3200 518.1500,840.9600 511.9900,844.8999
C507.6201,847.6098 506.3899,853.2298 502.0200,855.9000
C498.6400,858.1898 494.4200,858.8599 490.4201,858.3199
C490.9000,850.6199 493.1901,842.4799 499.3101,837.3399
Z
Z
M525.8900,880.5699
C519.1600,881.6499 511.6901,881.7698 506.0701,886.1298
C500.3799,890.5300 500.7501,899.1998 503.9101,904.9898
C508.1499,911.4900 516.9699,911.7198 523.8400,910.4499
C532.7399,908.6598 542.1501,903.2598 544.8300,894.0498
C545.7801,888.0900 544.9799,881.9898 545.2699,875.9798
C539.2100,878.8799 532.4199,879.4298 525.8900,880.5699
Z
Z
M582.7300,837.7200
C589.6001,831.6198 599.0199,829.4499 608.0000,829.2600
C615.8801,829.2898 624.1201,830.5900 630.7699,835.0798
C637.4701,839.4900 641.8400,847.0599 642.5901,855.0198
C638.0700,855.8498 633.2800,855.1298 629.4699,852.4800
C625.2800,850.1199 622.9701,845.1099 618.0199,844.0299
C610.3599,841.9997 601.6099,841.6800 594.4901,845.6298
C589.8801,848.1399 587.6799,854.2800 589.8699,859.0898
C591.8700,862.6898 596.1101,863.9300 599.7801,865.1098
C607.8600,867.3797 615.9900,869.4400 624.1201,871.5699
C630.5800,873.4499 637.4401,875.9098 641.7700,881.3699
C645.8499,886.5998 646.0699,893.6799 645.0900,899.9700
C643.6001,908.5198 637.5600,915.8598 629.8200,919.6098
C620.3299,924.4397 609.2501,924.6101 598.9300,923.0998
C591.1801,921.8798 583.2099,918.8898 578.1399,912.6298
C573.3799,906.9900 571.8501,899.4498 571.3999,892.2798
C576.3900,892.2197 581.3799,892.2699 586.3700,892.2399
C586.7501,897.1900 588.1300,902.5498 592.2300,905.7498
C598.0099,910.4199 605.9001,910.7898 613.0100,910.4598
C618.4599,909.9899 624.3800,908.2899 627.7799,903.6998
C630.0700,900.7699 630.5400,896.7300 629.6700,893.2099
C628.3100,889.0498 623.8599,887.2098 620.0501,885.9498
C610.4200,882.9998 600.4701,881.2199 590.8501,878.2600
C583.9299,876.1000 577.2501,871.2198 575.2701,863.9399
C572.9601,854.7500 575.5201,844.1198 582.7300,837.7200
Z
Z
M735.0199,841.9499
C741.7400,834.2399 751.8399,830.1399 761.9199,829.4698
C772.8100,828.3699 784.7101,831.3398 792.1800,839.7700
C802.4000,850.8600 804.5201,866.7499 804.7899,881.2500
C783.0000,881.2698 761.2101,881.2298 739.4199,881.2698
C739.5999,889.0398 740.9999,897.4599 746.4900,903.3599
C751.3299,908.7698 758.9200,910.8298 765.9799,910.5299
C776.3601,910.6398 786.3800,902.9798 788.5199,892.7300
C793.5199,892.7597 798.5200,892.7399 803.5200,892.7498
C801.7801,902.9599 795.7301,912.4398 786.9300,917.9700
C779.4201,923.2699 769.8300,924.1600 760.9099,923.8700
C750.6700,923.4899 740.4301,919.1398 733.7599,911.2300
C726.1900,902.3800 723.0399,890.4498 723.2199,878.9698
C723.0600,865.8700 726.1699,851.9998 735.0199,841.9499
Z
Z
M748.3601,849.3797
C741.3401,855.6199 738.6999,865.3700 739.4601,874.5199
C743.8901,869.6200 750.7400,868.7599 756.9799,869.2398
C767.6101,869.2498 778.2301,869.2699 788.8601,869.2299
C788.2401,862.6099 786.8200,855.6698 782.4300,850.4498
C774.0300,840.8098 757.4800,840.6000 748.3601,849.3797
Z" 
style="fill-rule: evenodd; fill: #231f20; "/>
</svg>

